<?xml version="1.0" encoding="utf-8"?>
<!-- Generator: Adobe Illustrator 16.0.2, SVG Export Plug-In . SVG Version: 6.00 Build 0)  -->
<!DOCTYPE svg PUBLIC "-//W3C//DTD SVG 1.1//EN" "http://www.w3.org/Graphics/SVG/1.1/DTD/svg11.dtd">
<svg version="1.1" id="Layer_1" xmlns="http://www.w3.org/2000/svg" xmlns:xlink="http://www.w3.org/1999/xlink" x="0px" y="0px"
	 width="64px" height="64px" viewBox="0 0 64 64" enable-background="new 0 0 64 64" xml:space="preserve">
<g>
	<path fill-rule="evenodd" clip-rule="evenodd" fill="#E2A262" stroke="#4B341D" stroke-miterlimit="10" d="M35.266,2.286
		c-3.718-0.825-8.802-0.019-12.401,1.161c-3.503,1.148-7.206,2.739-9.567,5.687c-2.646,3.3-5.221,6.968-6.971,10.856
		c-1.735,3.855-0.789,8.341-0.789,12.448c0,3.024-0.286,6.999,0.814,9.781c1.452,3.669,3.972,7.317,6.399,10.504
		c2.276,2.988,5.361,4.982,8.565,6.958c2.094,1.289,4.136,1.696,6.627,1.674c1.69-0.015,2.483-0.819,3.831-1.838
		c3.694-2.791,8.604-2.557,13.095-2.557c1.729,0,3.375,0.1,4.852-0.763c2.07-1.211,3.869-2.941,5.101-4.99
		c2.645-4.385,4.229-9.839,4.229-14.901c0-4.882,1.205-10.321-0.646-14.886c-1.153-2.842-2.113-5.854-3.942-8.27
		c-1.406-1.854-2.828-3.28-4.552-4.821c-1.265-1.13-2.332-1.363-3.86-2.067c-2.107-0.97-3.851-2.289-5.997-3.039
		c-1.67-0.583-3.479-0.247-4.914-0.936"/>
	<path fill-rule="evenodd" clip-rule="evenodd" fill="#CF7C2B" d="M11.689,12.105c-0.679,0.639-0.695,2.241-0.77,3.073
		c-0.338,3.791-1.371,7.483-1.744,11.271c-0.195,1.99-0.322,4.05,0.006,6.034c0.164,0.992,0.443,2.036,0.926,2.924
		c0.664,1.225,1.777,2.052,2.398,3.359c1.117,2.35,2.305,4.722,4.089,6.646c0.771,0.83,2.052,1.403,2.723,2.25
		c0.654,0.827,0.714,2.218,1.06,3.188c1.144,3.222,4.004,6.397,7.711,4.676c3.453-1.604,7.28-2.182,11.063-2.018
		c1.502,0.066,3.06,0.51,4.525,0.813c0.781,0.162,5.517,0.284,5.015,1.692c-0.208,0.582-2.73,0.691-3.389,0.757
		c-1.468,0.146-5.631-0.373-7.089-0.126c-3.275,0.552-7.065,2.736-7.065,2.736s-0.805,0.858-1.965,1.284
		c-0.696,0.256-1.519,0.156-2.374,0.189c-1.413,0.058-2.264-0.324-3.409-0.71c-6.439-2.172-11.845-9.014-15.264-14.36
		c-2.059-3.223-2.352-7.192-2.54-10.912c-0.182-3.614-0.17-7.267-0.004-10.881c0.03-0.669,0.102-2.488,0.728-2.991
		c0.476-0.994,1.398-3.113,2.015-4.183C9.317,15.113,10.215,13.492,11.689,12.105z"/>
	<path fill-rule="evenodd" clip-rule="evenodd" fill="#8F4E17" d="M19.768,50.131c0,0-3.548-0.713-3.26-2.322
		c0.288-1.607,1.63-2.946,3.26-3.126C19.768,44.683,23.892,50.311,19.768,50.131z"/>
	<path fill-rule="evenodd" clip-rule="evenodd" fill="#4B341D" d="M19.646,44.766c0,0-2.376,2.402-0.75,5.218
		c0,0-2.742-1.126-2.821-1.919C16.076,48.064,17.018,44.873,19.646,44.766z"/>
	<path fill-rule="evenodd" clip-rule="evenodd" fill="#8F4E17" d="M15.985,37.863c0,0-2.246-0.482-2.064-1.566
		c0.181-1.086,1.032-1.99,2.064-2.11C15.985,34.187,18.596,37.984,15.985,37.863z"/>
	<path fill-rule="evenodd" clip-rule="evenodd" fill="#4B341D" d="M15.908,34.242c0,0-1.504,1.622-0.475,3.521
		c0,0-1.734-0.76-1.785-1.294C13.648,36.47,14.245,34.314,15.908,34.242z"/>
	<path fill-rule="evenodd" clip-rule="evenodd" fill="#8F4E17" d="M43.371,52.409c0,0-4.687-1.013-4.305-3.293
		c0.38-2.279,2.153-4.179,4.305-4.434C43.371,44.683,48.818,52.662,43.371,52.409z"/>
	<path fill-rule="evenodd" clip-rule="evenodd" fill="#4B341D" d="M43.212,44.799c0,0-3.139,3.409-0.991,7.4
		c0,0-3.62-1.597-3.725-2.722C38.496,49.478,39.741,44.952,43.212,44.799z"/>
	<path fill-rule="evenodd" clip-rule="evenodd" fill="#8F4E17" d="M42.083,26.677c0,0-4.688-0.801-4.308-2.605
		c0.379-1.804,2.152-3.307,4.308-3.508C42.083,20.564,47.528,26.878,42.083,26.677z"/>
	<path fill-rule="evenodd" clip-rule="evenodd" fill="#4B341D" d="M41.922,20.656c0,0-3.14,2.697-0.99,5.856
		c0,0-3.621-1.263-3.727-2.154C37.205,24.357,38.45,20.777,41.922,20.656z"/>
	<path fill-rule="evenodd" clip-rule="evenodd" fill="#8F4E17" d="M24.708,18.372c0,0-3.435,3.347-5.125,1.77
		c-1.689-1.578-2.293-4.105-1.314-6.04C18.269,14.102,27.929,13.972,24.708,18.372z"/>
	<path fill-rule="evenodd" clip-rule="evenodd" fill="#4B341D" d="M18.277,14.299c0,0,1.105,4.501,5.619,4.916
		c0,0-3.331,2.136-4.327,1.601C19.569,20.816,16.486,17.277,18.277,14.299z"/>
	<path fill-rule="evenodd" clip-rule="evenodd" fill="#8F4E17" d="M51.226,38.752c0,0-4.687-1.014-4.308-3.292
		c0.382-2.281,2.154-4.18,4.308-4.434C51.226,31.026,56.673,39.007,51.226,38.752z"/>
	<path fill-rule="evenodd" clip-rule="evenodd" fill="#4B341D" d="M51.064,31.142c0,0-3.14,3.408-0.99,7.401
		c0,0-3.62-1.597-3.725-2.722C46.35,35.821,47.594,31.295,51.064,31.142z"/>
	<path fill-rule="evenodd" clip-rule="evenodd" fill="#8F4E17" d="M33.076,42.406c0,0-5.746-0.566-5.28-1.838
		c0.466-1.271,2.64-2.332,5.28-2.472C33.076,38.097,39.752,42.548,33.076,42.406z"/>
	<path fill-rule="evenodd" clip-rule="evenodd" fill="#4B341D" d="M32.879,38.161c0,0-3.849,1.902-1.215,4.126
		c0,0-4.438-0.89-4.567-1.516C27.098,40.771,28.624,38.246,32.879,38.161z"/>
	<path fill-rule="evenodd" clip-rule="evenodd" fill="#8F4E17" d="M37.171,13.524c0,0-4.687-1.014-4.307-3.293
		c0.38-2.28,2.153-4.18,4.307-4.434C37.171,5.797,42.618,13.777,37.171,13.524z"/>
	<path fill-rule="evenodd" clip-rule="evenodd" fill="#4B341D" d="M37.01,5.914c0,0-3.14,3.407-0.99,7.399
		c0,0-3.62-1.595-3.725-2.722C32.295,10.591,33.539,6.066,37.01,5.914z"/>
</g>
</svg>
