<?xml version="1.0" encoding="utf-8"?>
<!-- Generator: Adobe Illustrator 18.1.1, SVG Export Plug-In . SVG Version: 6.00 Build 0)  -->
<svg version="1.1" xmlns="http://www.w3.org/2000/svg" xmlns:xlink="http://www.w3.org/1999/xlink" x="0px" y="0px"
	 viewBox="0 0 64 64" enable-background="new 0 0 64 64" xml:space="preserve">
<g id="Emote_back">
	<circle fill="#451F59" cx="32" cy="32" r="32"/>
	<linearGradient id="SVGID_1_" gradientUnits="userSpaceOnUse" x1="32" y1="60.5833" x2="32" y2="3.9161">
		<stop  offset="0" style="stop-color:#852473"/>
		<stop  offset="1" style="stop-color:#CD70AD"/>
	</linearGradient>
	<circle fill="url(#SVGID_1_)" cx="32" cy="32" r="30"/>
</g>
<g id=":_x28_">
	<path fill="#20122D" d="M21.4,29.8L21.4,29.8c-2.1,0-3.8-1.7-3.8-3.8V14c0-2.1,1.7-3.8,3.8-3.8h0c2.1,0,3.8,1.7,3.8,3.8v12
		C25.2,28,23.5,29.8,21.4,29.8z"/>
	<path fill="#20122D" d="M36.3,29.8L36.3,29.8c-2.1,0-3.8-1.7-3.8-3.8V14c0-2.1,1.7-3.8,3.8-3.8h0c2.1,0,3.8,1.7,3.8,3.8v12
		C40.1,28,38.4,29.8,36.3,29.8z"/>
	<g>
		<path fill="#20122D" d="M49.2,48c-4.1-13.9-26.1-14.2-29.9,0c-0.6,2.1,2.7,3,3.3,0.9c3-10.9,20.2-10.7,23.4,0
			C46.5,51,49.8,50.1,49.2,48L49.2,48z"/>
	</g>
</g>
</svg>
