<?xml version="1.0" encoding="utf-8"?>
<!-- Generator: Adobe Illustrator 18.1.1, SVG Export Plug-In . SVG Version: 6.00 Build 0)  -->
<svg version="1.1" xmlns="http://www.w3.org/2000/svg" xmlns:xlink="http://www.w3.org/1999/xlink" x="0px" y="0px"
	 viewBox="0 0 64 64" enable-background="new 0 0 64 64" xml:space="preserve">
<g id="Emote_back">
	<circle fill="#451F59" cx="32" cy="32" r="32"/>
	<linearGradient id="SVGID_1_" gradientUnits="userSpaceOnUse" x1="32" y1="60.5833" x2="32" y2="3.9161">
		<stop  offset="0" style="stop-color:#852473"/>
		<stop  offset="1" style="stop-color:#CD70AD"/>
	</linearGradient>
	<circle fill="url(#SVGID_1_)" cx="32" cy="32" r="30"/>
</g>
<g id=":_x29_">
	<path fill="#20122D" d="M24.4,29.8L24.4,29.8c-2.1,0-3.8-1.7-3.8-3.8V14c0-2.1,1.7-3.8,3.8-3.8h0c2.1,0,3.8,1.7,3.8,3.8v12
		C28.2,28,26.5,29.8,24.4,29.8z"/>
	<path fill="#20122D" d="M39.3,29.8L39.3,29.8c-2.1,0-3.8-1.7-3.8-3.8V14c0-2.1,1.7-3.8,3.8-3.8h0c2.1,0,3.8,1.7,3.8,3.8v12
		C43.1,28,41.4,29.8,39.3,29.8z"/>
	<g>
		<path fill="#20122D" d="M10.1,38.9c5.9,20.4,38.1,20.8,43.8,0c0.9-3.1-4-4.4-4.8-1.3c-4.4,16-29.6,15.7-34.2,0
			C14,34.5,9.2,35.8,10.1,38.9L10.1,38.9z"/>
	</g>
</g>
</svg>
