<?xml version="1.0" encoding="utf-8"?>
<!-- Generator: Adobe Illustrator 18.1.1, SVG Export Plug-In . SVG Version: 6.00 Build 0)  -->
<svg version="1.1" xmlns="http://www.w3.org/2000/svg" xmlns:xlink="http://www.w3.org/1999/xlink" x="0px" y="0px"
	 viewBox="0 0 64 64" enable-background="new 0 0 64 64" xml:space="preserve">
<g id="Emote_back">
	<circle fill="#451F59" cx="32" cy="32" r="32"/>
	<linearGradient id="SVGID_1_" gradientUnits="userSpaceOnUse" x1="32" y1="60.5833" x2="32" y2="3.9161">
		<stop  offset="0" style="stop-color:#852473"/>
		<stop  offset="1" style="stop-color:#CD70AD"/>
	</linearGradient>
	<circle fill="url(#SVGID_1_)" cx="32" cy="32" r="30"/>
</g>
<g id="D:">
	<path fill="#20122D" d="M32.7,51.2c-8.7,0-15.8,0.7-21.5,1.7C12.2,42,21.4,33.6,32.5,33.6c11.1,0,20.2,8.4,21.3,19.2
		C48.2,51.8,41.2,51.2,32.7,51.2z"/>
	<path fill="#FFFFFF" d="M30.9,49.5c-7.1,0-12.9,0.5-17.5,1.2C14.3,43,21.7,37,30.8,37c9,0,16.5,6,17.4,13.7
		C43.6,50,37.8,49.5,30.9,49.5z"/>
	<path fill="#20122D" d="M21.4,29.8L21.4,29.8c-2.1,0-3.8-1.7-3.8-3.8V14c0-2.1,1.7-3.8,3.8-3.8h0c2.1,0,3.8,1.7,3.8,3.8v12
		C25.2,28,23.5,29.8,21.4,29.8z"/>
	<path fill="#20122D" d="M36.3,29.8L36.3,29.8c-2.1,0-3.8-1.7-3.8-3.8V14c0-2.1,1.7-3.8,3.8-3.8h0c2.1,0,3.8,1.7,3.8,3.8v12
		C40.1,28,38.4,29.8,36.3,29.8z"/>
</g>
</svg>
