<?xml version="1.0" encoding="utf-8"?>
<!-- Generator: Adobe Illustrator 18.1.1, SVG Export Plug-In . SVG Version: 6.00 Build 0)  -->
<svg version="1.1" xmlns="http://www.w3.org/2000/svg" xmlns:xlink="http://www.w3.org/1999/xlink" x="0px" y="0px"
	 viewBox="0 0 64 64" enable-background="new 0 0 64 64" xml:space="preserve">
<g id="Emote_back">
	<circle fill="#451F59" cx="32" cy="32" r="32"/>
	<linearGradient id="SVGID_1_" gradientUnits="userSpaceOnUse" x1="32" y1="60.5833" x2="32" y2="3.9161">
		<stop  offset="0" style="stop-color:#852473"/>
		<stop  offset="1" style="stop-color:#CD70AD"/>
	</linearGradient>
	<circle fill="url(#SVGID_1_)" cx="32" cy="32" r="30"/>
</g>
<g id=":D">
	<path fill="#20122D" d="M32.2,36.7c-10.1,0-18.5-0.8-25.1-2C8.3,47.4,19,57.3,32,57.3c13,0,23.6-9.9,24.9-22.5
		C50.3,35.9,42.1,36.7,32.2,36.7z"/>
	<path fill="#FFFFFF" d="M32.1,40.6c-8.3,0-15.1-0.6-20.5-1.4c1,9,9.7,16,20.3,16c10.6,0,19.2-7,20.3-16
		C46.9,40.1,40.2,40.6,32.1,40.6z"/>
	<path fill="#20122D" d="M18.2,29.8L18.2,29.8c-2.1,0-3.8-1.7-3.8-3.8V14c0-2.1,1.7-3.8,3.8-3.8h0c2.1,0,3.8,1.7,3.8,3.8v12
		C21.9,28,20.2,29.8,18.2,29.8z"/>
	<path fill="#20122D" d="M33.1,29.8L33.1,29.8c-2.1,0-3.8-1.7-3.8-3.8V14c0-2.1,1.7-3.8,3.8-3.8h0c2.1,0,3.8,1.7,3.8,3.8v12
		C36.9,28,35.2,29.8,33.1,29.8z"/>
</g>
</svg>
