<?xml version="1.0" encoding="utf-8"?>
<!-- Generator: Adobe Illustrator 18.1.1, SVG Export Plug-In . SVG Version: 6.00 Build 0)  -->
<svg version="1.1" id="broken_heart" xmlns="http://www.w3.org/2000/svg" xmlns:xlink="http://www.w3.org/1999/xlink" x="0px"
	 y="0px" viewBox="0 0 64 64" enable-background="new 0 0 64 64" xml:space="preserve">
<path id="favorite-icon_3_" fill="#20122D" d="M54.2,4.1C44.1-1.2,33.5,4.3,32,11.4C30.5,4.3,19.9-1.2,9.8,4.1
	C-3.6,11.2-8.9,36.2,32,62C72.9,36.2,67.6,11.2,54.2,4.1z"/>
<g>
	<linearGradient id="SVGID_1_" gradientUnits="userSpaceOnUse" x1="2.8833" y1="33.376" x2="61.1167" y2="33.376">
		<stop  offset="0" style="stop-color:#852473"/>
		<stop  offset="1" style="stop-color:#CD70AD"/>
	</linearGradient>
	<path fill="url(#SVGID_1_)" d="M47.3,7.5L36.2,22l9,1L33.9,37.4l7.6,1.2L27,56.3c-1.1-0.7-2.1-1.4-3.1-2.2L27.8,44l-5.6,0.5
		l6.1-13.9l-7.1-1.5l9-17.2c-3.5-4.2-11.1-6.5-18.4-2.8C-0.4,15.2-5.2,37,32,59.5C69.2,37,64.4,15.2,52.2,9.1"/>
</g>
</svg>
