<?xml version="1.0" encoding="utf-8"?>
<!-- Generator: Adobe Illustrator 18.1.1, SVG Export Plug-In . SVG Version: 6.00 Build 0)  -->
<svg version="1.1" xmlns="http://www.w3.org/2000/svg" xmlns:xlink="http://www.w3.org/1999/xlink" x="0px" y="0px"
	 viewBox="0 0 64 64" enable-background="new 0 0 64 64" xml:space="preserve">
<g id="Emote_back">
	<circle fill="#451F59" cx="32" cy="32" r="32"/>
	<linearGradient id="SVGID_1_" gradientUnits="userSpaceOnUse" x1="32" y1="60.5833" x2="32" y2="3.9161">
		<stop  offset="0" style="stop-color:#852473"/>
		<stop  offset="1" style="stop-color:#CD70AD"/>
	</linearGradient>
	<circle fill="url(#SVGID_1_)" cx="32" cy="32" r="30"/>
</g>
<g id=":p">
	<path fill="#20122D" d="M19.3,15.4c-2.5,0-4.9,0.5-6.7,1.4v4.6c1.8-0.9,4.2-1.4,6.7-1.4s4.9,0.5,6.7,1.4v-4.6
		C24.2,16,21.8,15.4,19.3,15.4z"/>
	<path fill="#20122D" d="M38.9,15.3c-2.5,0-4.9,0.5-6.7,1.4v4.6c1.8-0.9,4.2-1.4,6.7-1.4s4.9,0.5,6.7,1.4v-4.6
		C43.8,15.9,41.4,15.3,38.9,15.3z"/>
	<path fill="#20122D" d="M34.8,48.2l2.8,12.6c0,0,3.8,5.9,12.5,1.6s7.3-10.1,7.3-10.1l-9-11.5c0,0-2.1,2.6-6.7,4.8
		C37.1,47.8,34.8,48.2,34.8,48.2z"/>
	<path fill="#EF5BA0" d="M36.3,48.8l2.6,9.9c0,0,3.3,6.9,10.4,3c7.6-4.1,5.2-9.4,5.2-9.4l-6.8-10c0,0-1.2,2.8-5,4.7
		C38.9,49.1,36.3,48.8,36.3,48.8z"/>
	<path fill="#20122D" d="M52.5,27.1c0,1.3-0.1,2.6-0.3,3.9c-1.9,11.1-12.4,18.5-23.5,16.6c-3.3-0.6-6.3-1.9-8.8-3.9
		c2.8,3.3,6.6,5.6,11.2,6.4c10.2,1.8,20-5.1,21.7-15.3C53.3,32.2,53.1,29.6,52.5,27.1z"/>
</g>
</svg>
